Coordinates
version=1
nRows=6
nColumns=36
inDegrees=yes

Units are S.I. units (second, meters, Newtons, ...)
If the header above contains a line with 'inDegrees', this indicates whether rotational values are in degrees (yes) or radians (no).

endheader
time	pelvis_tilt	pelvis_list	pelvis_rotation	pelvis_tx	pelvis_ty	pelvis_tz	hip_flexion_r	hip_adduction_r	hip_rotation_r	knee_angle_r	knee_angle_r_beta	ankle_angle_r	subtalar_angle_r	mtp_angle_r	hip_flexion_l	hip_adduction_l	hip_rotation_l	knee_angle_l	knee_angle_l_beta	ankle_angle_l	subtalar_angle_l	mtp_angle_l	lumbar_extension	lumbar_bending	lumbar_rotation	arm_flex_r	arm_add_r	arm_rot_r	elbow_flex_r	pro_sup_r	arm_flex_l	arm_add_l	arm_rot_l	elbow_flex_l	pro_sup_l
      1.46000000	    -18.33109861	     -1.14489184	      1.35471554	     -0.30323124	      0.64731808	     -0.58812620	     77.05456186	     -3.67248387	     -0.34003636	     95.14355335	      1.66056827	     32.15782838	    -10.24487138	     -7.49066940	     77.00581091	    -10.39994480	      0.36695684	     97.72473505	      1.70561839	     29.89467140	     -3.03727918	     -7.49066940	    -37.77536730	     -2.20042419	     -2.05143571	     96.18101795	    -10.71358221	     14.84798921	    115.26055831	    105.33582550	    105.38872118	    -26.12098480	     33.15273244	    122.65604516	    104.27615329
      1.47000000	    -17.81921802	     -1.07806018	      1.43033651	     -0.29719474	      0.65863883	     -0.58815202	     74.91106692	     -3.54531815	     -0.50162180	     93.48016113	      1.63153660	     31.04934128	    -11.37230582	     -7.49306984	     75.07290349	    -10.50861304	     -0.04642438	     96.21317084	      1.67923662	     28.46200530	     -2.93061107	     -7.49306984	    -36.88687234	     -2.35541881	     -2.30690090	     98.15322449	    -12.40399135	     15.59482208	    117.76390708	     98.17353013	    108.21718137	    -25.53709264	     33.49690896	    122.88356441	    101.99508296
      1.48000000	    -17.13740723	     -0.99463301	      1.52665116	     -0.29075973	      0.67097589	     -0.58816329	     72.51649604	     -3.48352814	     -0.58489980	     91.72830695	      1.60096097	     30.24354264	    -11.71605775	     -7.49322888	     72.84942108	    -10.67743626	     -0.54487855	     94.54623421	      1.65014308	     27.10542038	     -2.55587207	     -7.49322888	    -36.00397962	     -2.47164935	     -2.83245727	     99.73398081	    -13.71511656	     15.88415533	    119.18151938	     98.26598150	    110.80360917	    -25.26516679	     33.80345722	    122.81861434	    101.95194365
      1.49000000	    -16.37392858	     -0.88911290	      1.66937765	     -0.28391560	      0.68422736	     -0.58818224	     69.95580988	     -3.45103075	     -0.61879317	     89.83360208	      1.56789214	     29.15818876	    -12.16038571	     -7.49335767	     70.41387681	    -10.83693431	     -1.11307264	     92.67261403	      1.61744224	     25.68219862	     -2.20152306	     -7.49335767	    -35.05642614	     -2.58297950	     -3.59661309	    100.80482120	    -14.68653567	     15.90004510	    120.41834721	     98.30638834	    113.09216552	    -25.22299662	     34.12459491	    122.76781273	    101.91207862
      1.50000000	    -15.63450040	     -0.80128774	      1.84157881	     -0.27658642	      0.69828882	     -0.58812160	     67.33130949	     -3.35795016	     -0.68300777	     87.72915833	      1.53116266	     27.18011766	    -13.63084780	     -7.49373601	     67.87156851	    -10.99912312	     -1.74643395	     90.55917094	      1.58055570	     24.04668725	     -2.17794038	     -7.49373601	    -33.86445502	     -2.74025174	     -4.51152459	    101.05223557	    -15.54799357	     15.77288295	    121.78130938	     97.39740707	    115.00136587	    -25.35590856	     34.75640347	    122.53600707	    101.93767122
      1.51000000	    -14.91115578	     -0.81885982	      2.09082240	     -0.26868098	      0.71323108	     -0.58820059	     64.56856517	     -3.32318427	     -0.91839505	     85.46056058	      1.49156816	     25.96802184	    -13.69701185	     -7.49382789	     65.23631848	    -11.16110810	     -2.31286732	     88.22703364	      1.53985223	     22.53480469	     -1.49841227	     -7.49382789	    -32.47618458	     -2.71720729	     -5.38958634	    100.78078875	    -16.61583436	     15.95755336	    123.18263250	     97.03286961	    116.18102436	    -25.61732842	     35.03851056	    122.49380351	    101.95294858
